<svg width="40" height="51" viewBox="0 0 40 51" fill="none" xmlns="http://www.w3.org/2000/svg">
<path d="M38.4112 50.8411L39.1589 49.9065C39.4704 48.4735 39.6262 47.2897 39.6262 46.3551C39.6262 44.3614 39.2212 42.5545 38.4112 40.9346C37.5389 39.2523 36.542 37.7882 35.4206 36.542C34.2991 35.2336 33.3333 34.1433 32.5234 33.271L13.8318 13.4579C13.0841 12.648 12.3053 11.7757 11.4953 10.8411C10.6231 9.84423 9.90654 8.90965 9.34579 8.03738C8.78504 7.1028 8.56697 6.35514 8.69159 5.79439L5.42056 7.28972H38.5047V0H1.21495L0.467289 0.934578C0.155763 2.3676 0 3.5514 0 4.48598C0 6.47975 0.436137 8.31776 1.30841 10C2.11838 11.6199 3.08411 13.0841 4.20561 14.3925C5.3271 15.6386 6.29283 16.6978 7.1028 17.5701L25.7944 37.3832C26.4797 38.1931 27.2586 39.0966 28.1308 40.0935C28.9408 41.028 29.6573 41.9315 30.2804 42.8037C30.8411 43.676 31.1215 44.4237 31.1215 45.0467L34.2991 43.5514H1.3084L2.47663 50.8411L38.4112 50.8411Z" fill="url(#paint0_linear_3_18)"/>
<path d="M1.58879 50.8411L0.84113 49.9065C0.529603 48.4735 0.37384 47.2897 0.37384 46.3551C0.37384 44.3614 0.778825 42.5545 1.58879 40.9346C2.46107 39.2523 3.45795 37.7882 4.57945 36.542C5.70094 35.2336 6.66667 34.1433 7.47664 33.271L26.1682 13.4579C26.9159 12.648 27.6947 11.7757 28.5047 10.8411C29.3769 9.84423 30.0935 8.90965 30.6542 8.03738C31.215 7.1028 31.433 6.35514 31.3084 5.79439L34.5794 7.28972H1.49534V0H38.785L39.5327 0.934578C39.8442 2.3676 40 3.5514 40 4.48598C40 6.47975 39.5639 8.31776 38.6916 10C37.8816 11.6199 36.9159 13.0841 35.7944 14.3925C34.6729 15.6386 33.7072 16.6978 32.8972 17.5701L14.2056 37.3832C13.5203 38.1931 12.7414 39.0966 11.8692 40.0935C11.0592 41.028 10.3427 41.9315 9.71963 42.8037C9.15889 43.676 8.87851 44.4237 8.87851 45.0467L5.70094 43.5514H38.785L37.5233 50.8411H1.58879Z" fill="#818CF8"/>
<defs>
<linearGradient id="paint0_linear_3_18" x1="18.6916" y1="7.00934" x2="19.8131" y2="50.8411" gradientUnits="userSpaceOnUse">
<stop stop-color="#818CF8"/>
<stop offset="0.40625" stop-color="#818CF8" stop-opacity="0.19"/>
<stop offset="0.848958" stop-color="#818CF8"/>
</linearGradient>
</defs>
</svg>
